<?xml version="1.0" encoding="UTF-8"?>
<svg id="Layer_2" data-name="Layer 2" xmlns="http://www.w3.org/2000/svg" viewBox="0 0 1917.86 736.05">
  <defs>
    <style>
      .cls-1 {
        stroke-width: .9px;
      }

      .cls-1, .cls-2, .cls-3, .cls-4, .cls-5, .cls-6, .cls-7, .cls-8, .cls-9, .cls-10, .cls-11, .cls-12, .cls-13, .cls-14, .cls-15, .cls-16, .cls-17, .cls-18, .cls-19, .cls-20, .cls-21 {
        stroke-miterlimit: 10;
      }

      .cls-1, .cls-6, .cls-22, .cls-23, .cls-21 {
        fill: #ff9408;
      }

      .cls-1, .cls-6, .cls-22, .cls-21 {
        stroke: #ff9408;
      }

      .cls-2 {
        stroke-width: 1.24px;
      }

      .cls-2, .cls-11, .cls-15, .cls-16, .cls-24, .cls-18 {
        fill: #cbdd19;
      }

      .cls-2, .cls-11, .cls-15, .cls-16, .cls-18 {
        stroke: #cbdd19;
      }

      .cls-3 {
        stroke-width: 1.04px;
      }

      .cls-3, .cls-5, .cls-25, .cls-26, .cls-13, .cls-27, .cls-20 {
        fill: #ec0089;
      }

      .cls-3, .cls-5, .cls-25, .cls-26, .cls-13, .cls-20 {
        stroke: #ec0089;
      }

      .cls-4 {
        stroke-width: 1.03px;
      }

      .cls-4, .cls-7, .cls-12, .cls-28, .cls-19 {
        fill: #00ccf5;
      }

      .cls-4, .cls-7, .cls-12, .cls-19 {
        stroke: #00ccf5;
      }

      .cls-5, .cls-6, .cls-7, .cls-25, .cls-10, .cls-11 {
        stroke-width: 1.59px;
      }

      .cls-8 {
        stroke-width: 2px;
      }

      .cls-8, .cls-9, .cls-10, .cls-14, .cls-29, .cls-17 {
        fill: #20caf2;
      }

      .cls-8, .cls-9, .cls-10, .cls-14, .cls-17 {
        stroke: #20caf2;
      }

      .cls-9 {
        stroke-width: 1.59px;
      }

      .cls-25, .cls-26, .cls-22 {
        stroke-linecap: round;
        stroke-linejoin: round;
      }

      .cls-26 {
        stroke-width: 2.06px;
      }

      .cls-12 {
        stroke-width: .5px;
      }

      .cls-15 {
        stroke-width: 1.76px;
      }

      .cls-22 {
        stroke-width: 1.68px;
      }

      .cls-16 {
        stroke-width: 1.08px;
      }

      .cls-29, .cls-24, .cls-23, .cls-27, .cls-28 {
        stroke-width: 0px;
      }

      .cls-17, .cls-18, .cls-19, .cls-20, .cls-21 {
        stroke-width: 1.28px;
      }
    </style>
  </defs>
  <g id="Layer_1-2" data-name="Layer 1">
    <g>
      <g>
        <g>
          <path class="cls-24" d="m781.01,495.36c.15,0,.3-.05.43-.15l84.49-66.97c.3-.24.35-.68.11-.98-.24-.3-.68-.35-.98-.11l-84.49,66.97c-.3.24-.35.68-.11.98.14.17.34.26.55.26Z"/>
          <path class="cls-3" d="m865.49,543.65c.25,0,.46-.21.46-.46v-115.5c0-.25-.21-.46-.46-.46s-.46.21-.46.46v115.5c0,.25.21.46.46.46Z"/>
          <path class="cls-28" d="m661.37,418c.18,0,.37-.06.52-.18l84.43-67.63c.36-.29.42-.81.14-1.18-.29-.36-.81-.42-1.18-.14l-84.43,67.63c-.36.29-.42.81-.14,1.18.17.21.41.32.66.32Z"/>
          <path class="cls-23" d="m506.71,600.27c.19,0,.38-.09.49-.27.18-.27.1-.63-.17-.81l-19.82-12.85c-.27-.17-.63-.1-.81.17-.17.27-.1.63.17.81l19.82,12.85c.1.06.21.09.32.09Z"/>
          <path class="cls-29" d="m718.46,626.25c.25,0,.5-.12.65-.35.23-.36.13-.83-.23-1.06l-65.3-42.26c-.36-.23-.83-.13-1.06.23-.23.36-.13.83.23,1.06l65.3,42.26c.13.08.27.12.42.12Z"/>
          <path class="cls-17" d="m619.25,610.32c.06,0,.11-.02.16-.06l33.91-26.84c.11-.09.13-.25.04-.36-.09-.11-.25-.13-.36-.04l-33.91,26.84c-.11.09-.13.25-.04.36.05.06.13.1.2.1Z"/>
          <path class="cls-17" d="m481.33,591.24s.02,0,.02-.01c0-.01,0-.03,0-.04l-81.33-52.65s-.03,0-.04,0c0,.01,0,.03,0,.04l81.33,52.65s0,0,.01,0Z"/>
          <path class="cls-24" d="m469.92,369.09c.45,0,.89-.22,1.15-.62.41-.63.23-1.48-.4-1.89l-24.73-15.85c-.63-.41-1.48-.23-1.89.4-.41.63-.23,1.48.4,1.89l24.73,15.85c.23.15.49.22.74.22Z"/>
          <path class="cls-27" d="m529.17,323.15c.41,0,.8-.2,1.04-.57.37-.57.21-1.34-.37-1.71l-33.37-21.6c-.57-.37-1.34-.21-1.71.37-.37.57-.21,1.34.37,1.71l33.37,21.6c.21.13.44.2.67.2Z"/>
          <path class="cls-28" d="m495.8,301.62c.28,0,.57-.09.81-.28l33.02-26.1c.56-.45.66-1.26.21-1.83-.45-.56-1.26-.66-1.83-.21l-33.02,26.1c-.56.45-.66,1.26-.21,1.83.26.32.64.49,1.02.49Z"/>
          <path class="cls-28" d="m562.44,296.48c.3,0,.6-.15.77-.42.28-.43.16-1-.27-1.27l-33.32-21.6c-.43-.28-1-.16-1.27.27-.28.43-.16,1,.27,1.27l33.32,21.6c.15.1.33.15.5.15Z"/>
          <path class="cls-24" d="m529.18,322.94c.22,0,.45-.07.64-.22l33.26-26.35c.45-.35.52-1,.17-1.45-.35-.45-1-.52-1.44-.17l-33.26,26.35c-.45.35-.52,1-.17,1.44.2.26.5.39.81.39Z"/>
          <path class="cls-28" d="m576.05,609.32c.38,0,.75-.19.97-.53.35-.53.19-1.25-.34-1.6l-65.4-42.39c-.54-.34-1.25-.19-1.59.34-.35.53-.19,1.25.34,1.6l65.4,42.39c.19.12.41.19.63.19Z"/>
          <path class="cls-24" d="m510.65,566.97c.26,0,.52-.08.74-.26l43.2-34.18c.52-.41.61-1.16.2-1.68-.41-.52-1.16-.6-1.68-.19l-43.2,34.18c-.52.41-.61,1.16-.2,1.68.24.3.58.45.94.45Z"/>
          <path class="cls-21" d="m576.05,608.27s.05,0,.06-.02l43.2-34.24s.05-.1.02-.15c-.04-.05-.1-.05-.15-.02l-43.2,34.24s-.05.1-.02.15c.02.03.05.04.08.04Z"/>
          <path class="cls-29" d="m576.05,653.43c.34,0,.61-.27.61-.61v-44.65c0-.34-.27-.61-.61-.61s-.61.27-.61.61v44.65c0,.34.27.61.61.61Z"/>
          <path class="cls-29" d="m358.86,564.56c.31,0,.62-.1.89-.31l10.42-8.21c.62-.49.73-1.39.24-2.01-.49-.62-1.39-.73-2.01-.24l-10.42,8.21c-.62.49-.73,1.39-.24,2.01.28.36.7.55,1.13.55Z"/>
          <path class="cls-24" d="m663.28,534.52c.17,0,.34-.05.48-.17l66.38-52.63c.34-.27.39-.75.13-1.09-.27-.34-.75-.39-1.09-.13l-66.38,52.63c-.34.27-.39.75-.13,1.09.15.19.38.29.61.29Z"/>
          <path class="cls-21" d="m653.16,533.26s.05-.02.05-.05v-49.52s-.02-.05-.05-.05-.05.02-.05.05v49.52s.02.05.05.05Z"/>
          <path class="cls-24" d="m321.38,601.26c.1,0,.19-.03.27-.1l37.48-29.7c.19-.15.22-.43.07-.62-.15-.19-.43-.22-.62-.07l-37.48,29.7c-.19.15-.22.43-.07.62.09.11.22.17.35.17Z"/>
          <path class="cls-28" d="m506.71,581.69c.1,0,.2-.03.29-.1l3.94-3.08c.21-.16.24-.46.08-.66-.16-.21-.46-.24-.66-.08l-3.94,3.08c-.21.16-.24.46-.08.66.09.12.23.18.37.18Z"/>
          <path class="cls-21" d="m570.6,542.5c.06,0,.1-.05.1-.11v-11.72c0-.06-.05-.11-.1-.11s-.1.05-.1.11v11.72c0,.06.05.11.1.11Z"/>
          <path class="cls-23" d="m506.71,600.64c.52,0,.95-.42.95-.95v-18.47c0-.52-.42-.95-.95-.95s-.95.42-.95.95v18.47c0,.52.42.95.95.95Z"/>
          <path class="cls-21" d="m619.9,510.22c.1,0,.18-.08.18-.18v-18.47c0-.1-.08-.18-.18-.18s-.18.08-.18.18v18.47c0,.1.08.18.18.18Z"/>
          <path class="cls-17" d="m486.89,586.98c.08,0,.14-.06.14-.14v-18.47c0-.08-.06-.14-.14-.14s-.14.06-.14.14v18.47c0,.08.06.14.14.14Z"/>
          <path class="cls-17" d="m529.17,431.99c.19,0,.34-.15.34-.34v-109.73c0-.19-.15-.34-.34-.34s-.34.15-.34.34v109.73c0,.19.15.34.34.34Z"/>
          <path class="cls-27" d="m286.33,578.61c.11,0,.23-.04.32-.11l37.42-29.65c.23-.18.26-.51.08-.73-.18-.23-.51-.26-.73-.08l-37.42,29.65c-.23.18-.26.51-.08.73.1.13.26.2.41.2Z"/>
          <path class="cls-24" d="m374.79,558.98c.11,0,.21-.03.3-.11l25.22-19.93c.21-.17.25-.47.08-.69-.17-.21-.47-.25-.69-.08l-25.22,19.92c-.21.17-.25.47-.08.69.1.12.24.19.38.19Z"/>
          <path class="cls-23" d="m358.86,571.15s.03-.01.03-.03v-7.99s-.01-.03-.03-.03-.03.01-.03.03v7.99s.01.03.03.03Z"/>
          <path class="cls-21" d="m286.33,578.97c.49,0,.88-.39.88-.88v-277.96c0-.49-.39-.88-.88-.88s-.88.39-.88.88v277.96c0,.49.39.88.88.88Z"/>
          <path class="cls-29" d="m323.76,549.92c.81,0,1.47-.66,1.47-1.47v-277.96c0-.81-.66-1.47-1.47-1.47s-1.47.66-1.47,1.47v277.96c0,.81.66,1.47,1.47,1.47Z"/>
          <path class="cls-20" d="m400,538.91c.19,0,.34-.15.34-.34v-26.46c0-.19-.15-.34-.34-.34s-.34.15-.34.34v26.46c0,.19.15.34.34.34Z"/>
          <path class="cls-27" d="m359.38,293.16c0-.29-.24-.52-.52-.52s-.52.24-.52.52v269.97c0,.29.24.52.52.52s.52-.24.52-.52"/>
          <path class="cls-29" d="m286.33,300.91c.26,0,.51-.13.66-.36.24-.36.13-.85-.23-1.09l-55.84-36.13c-.36-.23-.85-.13-1.09.23-.24.36-.13.85.23,1.09l55.84,36.13c.13.08.28.13.42.13Z"/>
          <path class="cls-9" d="m358.86,293.44c.09,0,.18-.04.24-.13.08-.13.05-.31-.08-.39l-35.1-22.68c-.13-.08-.31-.05-.39.08-.08.13-.05.31.08.39l35.1,22.68s.1.04.15.04Z"/>
          <path class="cls-17" d="m400,513.3c.66,0,1.2-.54,1.2-1.2v-251.5c0-.66-.54-1.2-1.2-1.2s-1.2.54-1.2,1.2v251.5c0,.66.54,1.2,1.2,1.2Z"/>
          <path class="cls-21" d="m451.96,382.91s.04,0,.06-.02l18.47-14.63s.05-.09.02-.13c-.03-.04-.09-.05-.13-.01l-18.47,14.63s-.05.09-.02.13c.02.02.04.04.07.04Z"/>
          <path class="cls-20" d="m470.42,368.36s.08-.01.11-.04l25.38-20.09c.08-.06.09-.17.03-.25-.06-.07-.17-.09-.25-.03l-25.38,20.09c-.08.06-.09.17-.03.25.03.04.09.07.14.07Z"/>
          <path class="cls-29" d="m481.33,591.95c.16,0,.32-.05.46-.16l5.56-4.37c.32-.25.37-.71.12-1.03-.25-.32-.71-.37-1.03-.12l-5.56,4.37c-.32.25-.37.71-.12,1.03.15.18.36.28.58.28Z"/>
          <path class="cls-19" d="m562.44,425.36c.23,0,.42-.19.42-.42v-96.49c0-.23-.19-.42-.42-.42s-.42.19-.42.42v96.49c0,.23.19.42.42.42Z"/>
          <path class="cls-15" d="m562.44,328.67c.13,0,.23-.1.23-.23v-32.89c0-.12-.1-.23-.23-.23s-.23.1-.23.23v32.89c0,.13.1.23.23.23Z"/>
          <path class="cls-23" d="m619.25,574.58c.21,0,.43-.11.55-.3.2-.3.11-.71-.19-.91l-9.61-6.21c-.3-.19-.71-.11-.91.2-.2.3-.11.71.19.91l9.61,6.21c.11.07.23.1.36.1Z"/>
          <path class="cls-20" d="m619.25,610.17c.06,0,.11-.05.11-.11v-36.13c0-.06-.05-.11-.11-.11s-.11.05-.11.11v36.13c0,.06.05.11.11.11Z"/>
          <path class="cls-29" d="m452.13,609.15c.19,0,.37-.09.48-.26.17-.27.1-.62-.17-.79l-77.34-50.09c-.26-.17-.62-.1-.79.17-.17.27-.1.62.17.79l77.34,50.09c.1.06.2.09.31.09Z"/>
          <path class="cls-27" d="m374.79,559.69c.4,0,.78-.19,1.02-.55.36-.56.2-1.31-.36-1.67l-5.51-3.56c-.56-.36-1.31-.2-1.67.36-.36.56-.2,1.31.36,1.67l5.51,3.56c.2.13.43.19.66.19Z"/>
          <path class="cls-17" d="m619.9,491.77c.06,0,.13-.03.16-.09.06-.09.03-.21-.06-.27l-77.92-50.44c-.09-.06-.21-.03-.27.06-.06.09-.03.21.06.27l77.92,50.44s.07.03.11.03Z"/>
          <path class="cls-17" d="m399.48,388.09c.06,0,.12-.02.18-.06l45.29-36.18c.12-.1.14-.27.05-.4-.1-.12-.28-.14-.4-.05l-45.29,36.18c-.12.1-.14.28-.05.4.06.07.14.11.22.11Z"/>
          <path class="cls-24" d="m495.8,411.97c.7,0,1.27-.57,1.27-1.27v-62.6c0-.7-.57-1.27-1.27-1.27s-1.27.57-1.27,1.27v62.6c0,.7.57,1.27,1.27,1.27Z"/>
          <path class="cls-8" d="m495.8,348.38c.16,0,.28-.13.28-.28v-47.78c0-.15-.13-.28-.28-.28s-.28.13-.28.28v47.78c0,.15.12.28.28.28Z"/>
          <path class="cls-29" d="m230.5,469.68c.85,0,1.54-.69,1.54-1.54v-204.14c0-.85-.69-1.54-1.54-1.54s-1.54.69-1.54,1.54v204.14c0,.85.69,1.54,1.54,1.54Z"/>
          <path class="cls-1" d="m398.6,260.27c.19,0,.38-.09.5-.27.18-.27.1-.64-.18-.82l-19.98-12.96c-.28-.18-.64-.1-.82.17-.18.27-.1.64.17.82l19.98,12.96c.1.06.21.09.32.09Z"/>
          <path class="cls-28" d="m380.02,248.66c.33,0,.66-.16.86-.47.31-.47.17-1.1-.3-1.41l-70.9-45.9c-.47-.3-1.11-.17-1.41.3-.31.47-.17,1.1.3,1.41l70.9,45.9c.17.11.36.16.55.16Z"/>
          <path class="cls-29" d="m230.5,265.09c.24,0,.47-.08.67-.24l53.73-42.55c.47-.37.55-1.06.18-1.53-.37-.47-1.06-.55-1.53-.18l-53.73,42.55c-.47.37-.55,1.06-.18,1.53.22.27.53.41.86.41Z"/>
          <path class="cls-16" d="m284.23,221.81c.08,0,.16-.03.22-.08l24.9-19.71c.16-.12.18-.35.06-.5-.13-.16-.35-.18-.51-.06l-24.9,19.71c-.16.12-.18.35-.06.5.07.09.18.14.28.14Z"/>
          <path class="cls-24" d="m562.44,537.42c.11,0,.21-.05.27-.15.1-.15.05-.35-.1-.44l-8.59-5.51c-.15-.09-.35-.05-.44.1-.1.15-.05.35.1.44l8.59,5.51c.05.03.11.05.17.05Z"/>
          <path class="cls-24" d="m230.5,542s.04-.02.04-.04v-9.61s-.02-.04-.04-.04-.04.02-.04.04v9.61s.02.04.04.04Z"/>
          <path class="cls-13" d="m230.5,532.97c.34,0,.62-.28.62-.62v-64.21c0-.34-.28-.62-.62-.62s-.62.28-.62.62v64.21c0,.34.28.62.62.62Z"/>
          <path class="cls-28" d="m855.87,544.2c.41,0,.81-.2,1.05-.57.37-.58.21-1.35-.37-1.73l-73.21-47.22c-.58-.37-1.35-.21-1.73.37-.37.58-.21,1.35.37,1.73l73.21,47.22c.21.14.45.2.68.2Z"/>
          <path class="cls-20" d="m609.64,567.88c.05,0,.1-.03.13-.07.05-.07.03-.17-.05-.22l-39.04-25.33c-.07-.05-.17-.03-.22.05-.05.07-.03.17.05.22l39.04,25.33s.06.03.09.03Z"/>
          <path class="cls-28" d="m570.59,543.49c.36,0,.71-.18.92-.5.33-.51.19-1.19-.32-1.52l-8.16-5.29c-.51-.33-1.19-.19-1.52.32-.33.51-.19,1.19.32,1.52l8.16,5.29c.18.12.39.18.6.18Z"/>
          <path class="cls-23" d="m510.65,597.4c.44,0,.79-.36.79-.79v-18.47c0-.44-.36-.79-.79-.79s-.79.36-.79.79v18.47c0,.44.36.79.79.79Z"/>
          <path class="cls-28" d="m510.65,579.17c.57,0,1.03-.46,1.03-1.03v-12.37c0-.57-.46-1.03-1.03-1.03s-1.03.46-1.03,1.03v12.37c0,.57.46,1.03,1.03,1.03Z"/>
          <path class="cls-20" d="m703.06,444.45c.09,0,.18-.04.24-.13.09-.13.05-.31-.08-.39l-90.36-58.48c-.13-.08-.31-.05-.39.08-.09.13-.05.31.08.39l90.36,58.48s.1.04.15.04Z"/>
          <path class="cls-24" d="m506.71,600.46c.17,0,.33-.05.48-.16l3.94-3.08c.34-.26.4-.75.13-1.09-.26-.34-.75-.4-1.09-.13l-3.94,3.08c-.34.26-.4.75-.13,1.09.15.2.38.3.61.3Z"/>
          <path class="cls-29" d="m441.71,618.04c.41,0,.82-.2,1.05-.57.38-.58.21-1.36-.37-1.74l-82.85-53.65c-.58-.38-1.36-.21-1.74.37-.38.58-.21,1.36.37,1.74l82.85,53.65c.21.14.45.2.68.2Z"/>
          <path class="cls-20" d="m782.66,496.53c.26,0,.51-.13.67-.36.24-.37.13-.86-.23-1.1l-79.6-51.57c-.37-.24-.86-.13-1.1.23-.24.37-.13.86.23,1.1l79.6,51.57c.13.09.28.13.43.13Z"/>
          <path class="cls-17" d="m612.34,385.56s.1-.02.12-.07c.04-.07.02-.16-.04-.21l-49.92-32.36c-.07-.05-.16-.02-.2.04-.04.07-.03.16.04.2l49.92,32.36s.05.02.08.02Z"/>
          <path class="cls-17" d="m562.44,425.45c.11,0,.22-.04.31-.11l40.93-32.4c.22-.17.26-.49.08-.71-.17-.22-.49-.26-.71-.08l-40.93,32.4c-.22.17-.26.49-.08.71.1.13.25.19.4.19Z"/>
          <path class="cls-24" d="m541.98,442.15c.22,0,.44-.07.63-.22l20.47-16.2c.44-.35.51-.98.16-1.42-.35-.44-.98-.51-1.42-.16l-20.47,16.2c-.44.35-.51.98-.16,1.42.2.25.49.38.79.38Z"/>
          <path class="cls-23" d="m603.37,393.5c.21,0,.42-.07.6-.21l8.97-7.13c.41-.33.48-.93.15-1.35-.33-.42-.93-.49-1.35-.15l-8.97,7.13c-.42.33-.48.93-.15,1.35.19.24.47.36.75.36Z"/>
          <path class="cls-17" d="m619.9,510.16s.05,0,.07-.02l33.26-26.35c.05-.04.06-.11.02-.16-.04-.05-.12-.06-.17-.02l-33.26,26.35c-.05.04-.06.11-.02.16.02.03.06.04.09.04Z"/>
          <path class="cls-17" d="m653.16,484.13c.1,0,.19-.03.27-.09l49.9-39.53c.19-.15.22-.42.07-.61-.15-.19-.42-.22-.61-.07l-49.9,39.53c-.19.15-.22.42-.07.61.09.11.21.17.34.17Z"/>
          <path class="cls-18" d="m358.86,571.17s.03,0,.04-.02c.01-.02,0-.05-.01-.06l-35.1-22.68s-.05,0-.06.01c-.01.02,0,.05.01.06l35.1,22.68s.02,0,.02,0Z"/>
          <path class="cls-23" d="m286.33,578.17s.05-.01.07-.04c.02-.04.01-.09-.03-.11l-55.84-36.13s-.09-.01-.11.03c-.02.04-.01.09.03.11l55.84,36.13s.03.01.04.01Z"/>
          <path class="cls-23" d="m570.6,531.37c.15,0,.31-.05.43-.15l49.3-39.1c.3-.24.35-.68.11-.98-.24-.3-.68-.36-.98-.11l-49.3,39.1c-.3.24-.35.68-.11.98.14.17.34.26.55.26Z"/>
          <path class="cls-23" d="m562.44,537.56c.1,0,.2-.03.29-.1l8.16-6.43c.2-.16.24-.45.08-.65-.16-.2-.45-.24-.65-.08l-8.16,6.43c-.2.16-.24.45-.08.65.09.12.23.18.36.18Z"/>
          <path class="cls-12" d="m541.97,441.72c.19,0,.38-.09.49-.26.17-.27.1-.63-.17-.8l-12.8-8.32c-.27-.17-.63-.1-.8.17-.17.27-.1.63.17.8l12.8,8.32c.1.06.21.09.32.09Z"/>
          <path class="cls-20" d="m495.8,411.4c.06,0,.12-.03.15-.08.05-.08.03-.19-.05-.25l-43.85-28.41c-.08-.06-.19-.03-.25.05-.05.08-.03.19.05.25l43.85,28.41s.06.03.1.03Z"/>
          <path class="cls-19" d="m529.17,432.95s.08-.02.11-.06c.04-.06.02-.14-.04-.18l-33.37-21.6c-.06-.04-.14-.02-.18.04-.04.06-.02.14.04.18l33.37,21.6s.05.02.07.02Z"/>
          <path class="cls-22" d="m451.57,382.61s.03,0,.03-.02c.01-.02,0-.04-.01-.05l-24.93-16.13s-.04,0-.05.01c-.01.02,0,.04.01.05l24.93,16.13s.01,0,.02,0Z"/>
          <path class="cls-20" d="m506.71,581.48c.08,0,.17-.04.21-.12.08-.12.04-.27-.08-.35l-19.82-12.85c-.12-.08-.27-.04-.35.08-.08.12-.04.27.08.35l19.82,12.85s.09.04.14.04Z"/>
          <path class="cls-29" d="m321.38,601.46c.21,0,.41-.1.54-.29.19-.3.11-.69-.19-.88l-35.05-22.73c-.29-.19-.69-.11-.88.19-.19.3-.11.69.19.88l35.05,22.73c.11.07.23.1.35.1Z"/>
          <path class="cls-24" d="m486.89,569.59c.4,0,.8-.2,1.03-.56.37-.57.21-1.33-.36-1.69l-86.89-56.27c-.57-.37-1.33-.21-1.69.36-.37.57-.21,1.33.36,1.69l86.89,56.27c.21.13.44.2.66.2Z"/>
          <path class="cls-29" d="m358.86,294.21c.23,0,.46-.08.65-.23l41.07-33.28c.45-.36.53-1.02.17-1.47-.36-.45-1.02-.53-1.47-.17l-41.07,33.28c-.45.36-.53,1.02-.17,1.47.21.26.51.4.82.4Z"/>
          <path class="cls-29" d="m653.16,619.76c.65,0,1.17-.52,1.17-1.17v-35.37c0-.65-.53-1.17-1.17-1.17s-1.17.52-1.17,1.17v35.37c0,.65.53,1.17,1.17,1.17Z"/>
          <path class="cls-23" d="m230.5,468.7c.18,0,.36-.09.47-.26.17-.26.09-.61-.17-.78L5.71,321.89c-.26-.17-.61-.09-.78.17-.17.26-.09.61.17.78l225.09,145.78c.09.06.2.09.31.09Z"/>
          <path class="cls-29" d="m669.47,495.05c.26,0,.52-.13.67-.36.24-.37.13-.86-.24-1.1l-107.03-69.31c-.37-.24-.86-.13-1.1.23-.24.37-.13.86.24,1.1l107.03,69.31c.13.09.28.13.43.13Z"/>
          <path class="cls-24" d="m230.5,542.46c.16,0,.32-.08.41-.23.15-.23.08-.53-.15-.68L5.67,395.77c-.23-.15-.53-.08-.68.15-.15.23-.08.53.15.68l225.09,145.78c.08.05.18.08.27.08Z"/>
          <path class="cls-26" d="m286.33,300.15s0,0,.01,0l37.42-29.65s0-.02,0-.03c0,0-.02,0-.03,0l-37.42,29.65s0,.02,0,.03c0,0,0,0,.01,0Z"/>
        </g>
        <g>
          <path class="cls-24" d="m716.3,628.35c1.66,1.07,3.88.6,4.95-1.06,1.08-1.66.6-3.88-1.06-4.95-1.66-1.07-3.88-.6-4.95,1.06-1.08,1.66-.6,3.88,1.06,4.95Z"/>
          <path class="cls-23" d="m572.51,652.56c0,1.95,1.58,3.54,3.54,3.54s3.54-1.58,3.54-3.54-1.58-3.54-3.54-3.54-3.54,1.58-3.54,3.54Z"/>
          <path class="cls-24" d="m731.8,484.21c1.62-1.29,1.9-3.65.61-5.27-1.29-1.62-3.65-1.9-5.27-.61-1.62,1.29-1.9,3.65-.61,5.27,1.29,1.62,3.65,1.9,5.27.61Z"/>
          <path class="cls-29" d="m450.09,611.26c1.56,1.01,3.64.56,4.65-.99,1.01-1.56.56-3.64-.99-4.65-1.56-1.01-3.64-.56-4.65.99-1.01,1.56-.56,3.64.99,4.65Z"/>
          <path class="cls-29" d="m439.05,620.43c2.09,1.35,4.88.76,6.23-1.33,1.35-2.09.76-4.88-1.33-6.23-2.09-1.35-4.88-.76-6.23,1.33-1.35,2.09-.76,4.88,1.33,6.23Z"/>
          <path class="cls-23" d="m659.52,618.33c0,3.51-2.85,6.36-6.36,6.36s-6.36-2.85-6.36-6.36,2.85-6.36,6.36-6.36,6.36,2.85,6.36,6.36Z"/>
          <path class="cls-23" d="m2.57,327.22c-2.6-1.69-3.35-5.17-1.66-7.77,1.69-2.6,5.17-3.35,7.77-1.66,2.6,1.69,3.35,5.17,1.66,7.77-1.69,2.6-5.17,3.35-7.77,1.66Z"/>
          <path class="cls-27" d="m671.75,490.26c2.13,1.38,2.74,4.22,1.36,6.35-1.38,2.13-4.22,2.74-6.35,1.36-2.13-1.38-2.74-4.22-1.36-6.35s4.22-2.74,6.35-1.36Z"/>
          <path class="cls-24" d="m3.45,399.67c-1.85-1.2-2.38-3.68-1.18-5.53,1.2-1.85,3.68-2.38,5.53-1.18,1.85,1.2,2.38,3.68,1.18,5.53-1.2,1.85-3.68,2.38-5.53,1.18Z"/>
        </g>
      </g>
      <g>
        <g>
          <path class="cls-29" d="m1448.63,336.57c.34,0,.67-.17.87-.47.31-.48.17-1.12-.31-1.43l-56.23-36.41c-.48-.31-1.12-.17-1.43.31-.31.48-.17,1.12.31,1.43l56.23,36.41c.17.11.37.17.56.17Z"/>
          <path class="cls-11" d="m1603.01,332.85c.11,0,.23-.06.29-.16.1-.16.06-.38-.1-.48l-82.9-53.61c-.16-.1-.38-.06-.48.1-.1.16-.06.38.1.48l82.9,53.61c.06.04.12.06.19.06Z"/>
          <path class="cls-24" d="m1664.32,536.08c.19,0,.38-.06.54-.19l105.11-83.32c.38-.3.44-.84.14-1.22-.3-.37-.84-.44-1.22-.14l-105.11,83.32c-.38.3-.44.84-.14,1.22.17.22.42.33.68.33Z"/>
          <path class="cls-23" d="m1769.43,452.51c.21,0,.41-.1.53-.28.19-.29.1-.68-.19-.86l-149.11-96.14c-.29-.19-.67-.1-.86.19-.19.29-.1.68.19.86l149.11,96.14c.1.07.22.1.34.1Z"/>
          <path class="cls-10" d="m1751.55,592.2c.11,0,.22-.04.31-.11l17.87-14.17c.22-.17.26-.49.08-.71-.17-.22-.49-.26-.71-.08l-17.87,14.18c-.22.17-.26.49-.08.71.1.13.25.19.4.19Z"/>
          <path class="cls-27" d="m1769.43,578.09c.32,0,.57-.26.57-.57v-125.63c0-.32-.26-.57-.57-.57s-.57.26-.57.57v125.63c0,.32.26.57.57.57Z"/>
          <path class="cls-10" d="m1448.63,372.74c.07,0,.15-.02.21-.07l71.48-56.63c.14-.11.17-.32.05-.47-.12-.14-.32-.17-.47-.05l-71.48,56.63c-.14.11-.17.32-.05.47.07.08.16.13.26.13Z"/>
          <path class="cls-24" d="m1577.42,354.03c.38,0,.76-.19.98-.53.35-.54.2-1.26-.34-1.61l-57.31-37.08c-.54-.35-1.26-.2-1.61.34-.35.54-.2,1.26.34,1.61l57.31,37.08c.2.13.41.19.63.19Z"/>
          <path class="cls-28" d="m1515.48,439.83c.23,0,.45-.07.65-.23l141.81-112.32c.45-.36.53-1.01.17-1.46-.36-.45-1.01-.53-1.46-.17l-141.81,112.32c-.45.36-.53,1.01-.17,1.46.21.26.51.39.82.39Z"/>
          <path class="cls-28" d="m1505.06,432.98c.81,0,1.47-.66,1.47-1.47v-21.97c0-.81-.66-1.47-1.47-1.47s-1.47.66-1.47,1.47v21.97c0,.81.66,1.47,1.47,1.47Z"/>
          <path class="cls-28" d="m1520.11,317.45c.92,0,1.67-.75,1.67-1.67v-36.88c0-.92-.75-1.67-1.67-1.67s-1.67.75-1.67,1.67v36.88c0,.92.75,1.67,1.67,1.67Z"/>
          <path class="cls-27" d="m1603.01,371.08c.9,0,1.63-.73,1.63-1.63v-36.95c0-.9-.73-1.63-1.63-1.63s-1.63.73-1.63,1.63v36.95c0,.9.73,1.63,1.63,1.63Z"/>
          <path class="cls-23" d="m1323.06,666.59c.24,0,.47-.12.61-.33.22-.34.12-.79-.21-1l-24.66-15.99c-.33-.22-.78-.12-1,.21-.22.34-.12.79.21,1l24.65,15.99c.12.08.26.12.39.12Z"/>
          <path class="cls-29" d="m1586.5,698.91c.31,0,.62-.15.81-.44.29-.44.16-1.04-.28-1.32l-81.24-52.58c-.45-.29-1.04-.16-1.32.28-.29.44-.16,1.04.28,1.32l81.24,52.58c.16.1.34.15.52.15Z"/>
          <path class="cls-10" d="m1463.07,679.09c.07,0,.14-.02.2-.07l42.19-33.39c.14-.11.16-.31.05-.45-.11-.14-.31-.17-.45-.05l-42.19,33.39c-.14.11-.16.31-.05.45.06.08.16.12.25.12Z"/>
          <path class="cls-10" d="m1291.49,655.35s.02,0,.03-.02c.01-.01,0-.04,0-.05l-101.18-65.5s-.04,0-.05.01c-.01.01,0,.04,0,.05l101.18,65.5s.01,0,.02,0Z"/>
          <path class="cls-7" d="m1222.96,375.79c.09,0,.18-.03.26-.09l22.98-18.21c.18-.14.21-.41.07-.59-.15-.18-.41-.21-.59-.07l-22.98,18.21c-.18.14-.21.41-.07.59.08.1.21.16.33.16Z"/>
          <path class="cls-24" d="m1277.91,379.55c.56,0,1.1-.27,1.43-.78.51-.79.28-1.84-.5-2.35l-31.98-20.69c-.79-.51-1.84-.29-2.35.5-.51.79-.28,1.84.5,2.35l31.98,20.69c.28.19.61.27.92.27Z"/>
          <path class="cls-27" d="m1351.01,292.53c.5,0,1-.25,1.29-.7.46-.71.26-1.67-.46-2.13l-41.52-26.88c-.71-.46-1.67-.26-2.13.46-.46.71-.26,1.67.46,2.13l41.52,26.88c.26.17.55.25.83.25Z"/>
          <path class="cls-28" d="m1309.49,265.73c.35,0,.71-.11,1-.35l41.45-32.79c.7-.55.82-1.57.27-2.27-.55-.7-1.57-.82-2.27-.27l-41.45,32.79c-.7.55-.82,1.57-.27,2.27.32.4.79.62,1.27.62Z"/>
          <path class="cls-28" d="m1392.39,259.35c.38,0,.74-.19.96-.52.34-.53.19-1.24-.34-1.59l-41.45-26.87c-.53-.34-1.24-.19-1.59.34-.34.53-.19,1.24.34,1.59l41.45,26.87c.19.13.41.19.62.19Z"/>
          <path class="cls-24" d="m1351.01,292.27c.28,0,.56-.09.79-.28l41.38-32.79c.55-.44.65-1.24.21-1.8-.44-.55-1.25-.65-1.8-.21l-41.38,32.79c-.55.44-.65,1.24-.21,1.8.25.32.63.49,1,.49Z"/>
          <path class="cls-28" d="m1409.32,677.85c.47,0,.93-.23,1.21-.65.43-.66.24-1.55-.42-1.99l-81.36-52.74c-.67-.43-1.55-.24-1.98.42-.43.66-.24,1.55.42,1.98l81.36,52.74c.24.16.51.23.78.23Z"/>
          <path class="cls-24" d="m1327.97,625.16c.32,0,.65-.1.92-.32l53.75-42.53c.64-.51.75-1.44.24-2.09-.51-.64-1.44-.75-2.09-.24l-53.75,42.53c-.64.51-.75,1.44-.24,2.09.29.37.73.56,1.17.56Z"/>
          <path class="cls-6" d="m1409.33,676.54s.06,0,.08-.03l53.75-42.59c.06-.04.07-.13.02-.18-.05-.06-.13-.07-.18-.02l-53.75,42.59c-.06.04-.07.13-.02.18.03.03.06.05.1.05Z"/>
          <path class="cls-29" d="m1409.33,732.73c.42,0,.76-.34.76-.76v-55.55c0-.42-.34-.76-.76-.76s-.76.34-.76.76v55.55c0,.42.34.76.76.76Z"/>
          <path class="cls-29" d="m1139.12,622.17c.39,0,.77-.13,1.1-.38l12.97-10.21c.77-.61.91-1.73.3-2.5-.61-.77-1.73-.9-2.5-.3l-12.97,10.21c-.77.61-.91,1.73-.3,2.5.35.45.87.68,1.4.68Z"/>
          <path class="cls-24" d="m1451.11,627.06c.21,0,.42-.07.6-.21l82.59-65.48c.42-.33.49-.94.16-1.35-.33-.42-.93-.49-1.35-.16l-82.59,65.48c-.42.33-.49.94-.16,1.35.19.24.47.36.76.36Z"/>
          <path class="cls-6" d="m1505.26,583.22s.06-.03.06-.06v-61.61s-.03-.06-.06-.06-.06.03-.06.06v61.61s.03.06.06.06Z"/>
          <path class="cls-24" d="m1092.49,667.83c.12,0,.24-.04.34-.12l46.63-36.95c.24-.19.28-.53.09-.77-.19-.24-.54-.28-.77-.09l-46.63,36.95c-.24.19-.28.53-.09.77.11.14.27.21.43.21Z"/>
          <path class="cls-28" d="m1323.06,643.48c.13,0,.25-.04.36-.12l4.9-3.83c.26-.2.3-.57.1-.82-.2-.26-.57-.3-.82-.1l-4.9,3.83c-.26.2-.3.57-.1.82.12.15.29.23.46.23Z"/>
          <path class="cls-6" d="m1402.54,594.72c.07,0,.13-.06.13-.13v-14.58c0-.07-.06-.13-.13-.13s-.13.06-.13.13v14.58c0,.07.06.13.13.13Z"/>
          <path class="cls-23" d="m1323.06,667.05c.65,0,1.18-.53,1.18-1.18v-22.98c0-.65-.53-1.18-1.18-1.18s-1.18.53-1.18,1.18v22.98c0,.65.53,1.18,1.18,1.18Z"/>
          <path class="cls-6" d="m1463.88,554.56c.12,0,.22-.1.22-.22v-22.97c0-.12-.1-.22-.22-.22s-.22.1-.22.22v22.97c0,.12.1.22.22.22Z"/>
          <path class="cls-10" d="m1298.41,650.05c.1,0,.18-.08.18-.18v-22.98c0-.1-.08-.18-.18-.18s-.18.08-.18.18v22.98c0,.1.08.18.18.18Z"/>
          <path class="cls-10" d="m1351.01,458.03c.23,0,.42-.19.42-.42v-166.62c0-.23-.19-.42-.42-.42s-.42.19-.42.42v166.62c0,.23.19.42.42.42Z"/>
          <path class="cls-27" d="m1048.89,639.64c.14,0,.28-.05.4-.14l46.56-36.88c.28-.22.33-.63.1-.91-.22-.28-.63-.33-.91-.1l-46.56,36.88c-.28.22-.33.63-.1.91.13.16.32.25.51.25Z"/>
          <path class="cls-24" d="m1158.94,615.22c.13,0,.27-.04.38-.13l31.37-24.79c.26-.21.31-.59.1-.86-.21-.27-.59-.31-.86-.1l-31.37,24.79c-.26.21-.31.59-.1.86.12.15.3.23.48.23Z"/>
          <path class="cls-23" d="m1139.12,630.36s.03-.01.03-.03v-9.94s-.01-.03-.03-.03-.03.01-.03.03v9.94s.01.03.03.03Z"/>
          <path class="cls-6" d="m1048.89,640.09c.61,0,1.1-.49,1.1-1.1v-159.89c0-.61-.49-1.1-1.1-1.1s-1.1.49-1.1,1.1v159.89c0,.61.49,1.1,1.1,1.1Z"/>
          <path class="cls-29" d="m1095.45,603.95c1.01,0,1.83-.82,1.83-1.83v-159.9c0-1.01-.82-1.83-1.83-1.83s-1.83.82-1.83,1.83v159.9c0,1.01.82,1.83,1.83,1.83Z"/>
          <path class="cls-5" d="m1190.31,590.25c.24,0,.43-.19.43-.43v-32.92c0-.24-.19-.43-.43-.43s-.43.19-.43.43v32.92c0,.24.19.43.43.43Z"/>
          <path class="cls-27" d="m1139.12,621.04c.36,0,.65-.29.65-.65v-149.95c0-.36-.29-.65-.65-.65s-.65.29-.65.65v149.95c0,.36.29.65.65.65Z"/>
          <path class="cls-11" d="m1152.08,610.39c.12,0,.22-.1.22-.22v-150.02c0-.12-.1-.22-.22-.22s-.22.1-.22.22v150.02c0,.12.1.22.22.22Z"/>
          <path class="cls-29" d="m1048.89,480.07c.32,0,.63-.16.82-.45.29-.45.16-1.06-.29-1.35l-69.47-44.94c-.45-.29-1.06-.16-1.35.29-.29.45-.16,1.06.29,1.35l69.47,44.94c.16.1.35.16.53.16Z"/>
          <path class="cls-25" d="m1048.89,479.12s0,0,.01,0l46.56-36.88s.01-.02,0-.03c-.01,0-.02,0-.03,0l-46.56,36.88s-.01.02,0,.03c0,0,.01,0,.02,0Z"/>
          <path class="cls-10" d="m1139.12,470.78c.11,0,.23-.06.29-.16.1-.16.06-.38-.1-.48l-43.67-28.22c-.16-.1-.38-.06-.48.1-.1.16-.06.38.1.48l43.67,28.22c.06.04.12.06.19.06Z"/>
          <path class="cls-10" d="m1190.31,558.39c.83,0,1.5-.67,1.5-1.5v-126.98c0-.83-.67-1.5-1.5-1.5s-1.5.67-1.5,1.5v126.98c0,.83.67,1.5,1.5,1.5Z"/>
          <path class="cls-6" d="m1254.94,396.17s.05,0,.07-.02l22.97-18.21c.05-.04.06-.11.02-.16-.04-.05-.11-.06-.16-.02l-22.97,18.21c-.05.04-.06.11-.02.16.02.03.06.04.09.04Z"/>
          <path class="cls-5" d="m1277.92,378.07s.1-.02.14-.05l31.58-24.99c.1-.08.11-.21.04-.31-.07-.09-.22-.11-.31-.04l-31.58,24.99c-.1.08-.11.21-.04.31.04.05.11.08.17.08Z"/>
          <path class="cls-6" d="m1577.42,352.97s.05,0,.07-.02l25.6-20.35s.06-.11.02-.16c-.04-.05-.11-.06-.16-.02l-25.6,20.35s-.06.11-.02.16c.02.03.05.04.09.04Z"/>
          <path class="cls-10" d="m1505.06,410.68c.13,0,.25-.04.36-.12l72.36-57.24c.25-.2.29-.56.1-.82-.2-.25-.57-.29-.82-.09l-72.36,57.24c-.25.2-.29.56-.09.81.11.14.28.22.46.22Z"/>
          <path class="cls-23" d="m1505.06,410.89c.26,0,.51-.13.66-.36.24-.36.13-.85-.23-1.08l-9.74-6.32c-.36-.24-.85-.13-1.08.23-.24.36-.13.85.23,1.08l9.74,6.32c.13.09.28.13.43.13Z"/>
          <path class="cls-29" d="m1291.49,656.23c.2,0,.4-.06.57-.19l6.92-5.44c.4-.31.47-.89.15-1.29-.31-.4-.89-.46-1.29-.15l-6.92,5.44c-.4.31-.47.89-.15,1.29.18.23.45.35.72.35Z"/>
          <path class="cls-7" d="m1392.39,448.98c.29,0,.52-.23.52-.52v-149.35c0-.29-.23-.52-.52-.52s-.52.23-.52.52v149.35c0,.29.23.52.52.52Z"/>
          <path class="cls-23" d="m1463.07,634.63c.27,0,.53-.13.69-.37.24-.38.14-.88-.24-1.13l-11.96-7.73c-.38-.24-.88-.13-1.13.24-.24.38-.14.88.24,1.13l11.96,7.73c.14.09.29.13.44.13Z"/>
          <path class="cls-5" d="m1463.07,678.91c.08,0,.14-.06.14-.14v-44.94c0-.08-.06-.14-.14-.14s-.14.06-.14.14v44.94c0,.08.06.14.14.14Z"/>
          <path class="cls-29" d="m1255.16,677.64c.23,0,.46-.11.6-.33.21-.33.12-.77-.21-.99l-96.22-62.32c-.33-.21-.77-.12-.99.21-.21.33-.12.77.21.99l96.22,62.32c.12.08.25.11.39.11Z"/>
          <path class="cls-27" d="m1158.94,616.11c.49,0,.98-.24,1.26-.69.45-.7.25-1.63-.45-2.08l-6.86-4.43c-.7-.45-1.62-.25-2.08.45-.45.7-.25,1.63.45,2.08l6.86,4.43c.25.16.54.24.81.24Z"/>
          <path class="cls-10" d="m1463.88,531.61c.08,0,.16-.04.2-.11.07-.11.04-.26-.07-.33l-96.94-62.75c-.11-.07-.26-.04-.33.07-.07.11-.04.26.07.33l96.94,62.75s.09.04.13.04Z"/>
          <path class="cls-23" d="m1222.96,376.3c.31,0,.61-.15.78-.42.28-.43.16-1.01-.27-1.29l-4.97-3.22c-.43-.28-1.01-.16-1.29.27-.28.43-.16,1.01.28,1.29l4.97,3.22c.16.1.33.15.51.15Z"/>
          <path class="cls-23" d="m1165.45,415.18c.3,0,.6-.1.86-.3l10.42-8.26c.6-.47.7-1.34.22-1.94-.47-.6-1.34-.7-1.94-.22l-10.42,8.26c-.6.47-.7,1.34-.22,1.94.27.34.68.52,1.08.52Z"/>
          <path class="cls-10" d="m1175.87,405.89c.08,0,.15-.02.22-.08l42.12-33.39c.15-.12.18-.34.06-.5-.12-.15-.34-.18-.5-.06l-42.12,33.39c-.15.12-.18.34-.06.5.07.09.17.13.28.13Z"/>
          <path class="cls-24" d="m1309.49,432.98c.88,0,1.58-.71,1.58-1.58v-78.54c0-.87-.71-1.58-1.58-1.58s-1.58.71-1.58,1.58v78.54c0,.88.71,1.58,1.58,1.58Z"/>
          <path class="cls-10" d="m1309.49,353.21c.19,0,.35-.16.35-.35v-88.75c0-.19-.16-.35-.35-.35s-.35.16-.35.35v88.75c0,.19.16.35.35.35Z"/>
          <path class="cls-29" d="m979.42,504.12c1.05,0,1.91-.86,1.91-1.91v-68.05c0-1.05-.86-1.91-1.91-1.91s-1.91.86-1.91,1.91v68.05c0,1.05.86,1.91,1.91,1.91Z"/>
          <path class="cls-23" d="m1190.31,430.66c.24,0,.48-.12.62-.34.22-.34.12-.8-.22-1.02l-24.86-16.12c-.34-.22-.8-.12-1.02.22-.22.34-.12.8.22,1.02l24.86,16.12c.12.08.26.12.4.12Z"/>
          <path class="cls-28" d="m1165.45,415.07c.42,0,.82-.2,1.07-.58.38-.59.21-1.37-.38-1.75l-88.21-57.11c-.59-.38-1.38-.21-1.75.38-.38.59-.21,1.37.38,1.76l88.21,57.11c.21.14.45.2.69.2Z"/>
          <path class="cls-29" d="m979.43,435.51c.29,0,.59-.1.84-.29l66.84-52.94c.59-.46.69-1.32.22-1.9-.46-.58-1.31-.69-1.9-.22l-66.84,52.94c-.59.46-.69,1.32-.22,1.9.27.34.66.51,1.06.51Z"/>
          <path class="cls-24" d="m1046.27,381.66c.1,0,.19-.03.28-.1l30.97-24.52c.19-.15.23-.43.07-.63-.16-.19-.44-.23-.63-.07l-30.97,24.52c-.19.15-.23.43-.07.63.09.11.22.17.35.17Z"/>
          <path class="cls-24" d="m1392.39,588.4c.13,0,.26-.07.34-.18.12-.19.07-.43-.12-.55l-10.68-6.85c-.18-.12-.43-.07-.55.12-.12.19-.07.43.12.55l10.68,6.85c.07.04.14.06.22.06Z"/>
          <path class="cls-24" d="m979.42,594.1s.05-.02.05-.05v-11.96s-.02-.05-.05-.05-.05.02-.05.05v11.96s.02.05.05.05Z"/>
          <path class="cls-27" d="m979.42,582.86c.42,0,.77-.34.77-.77v-79.88c0-.42-.34-.77-.77-.77s-.77.34-.77.77v79.88c0,.42.34.77.77.77Z"/>
          <path class="cls-28" d="m1751.55,593.25c.51,0,1.01-.25,1.31-.71.47-.72.26-1.68-.46-2.15l-85.19-55.15c-.72-.47-1.68-.26-2.15.46-.47.72-.26,1.68.46,2.15l85.19,55.15c.26.17.55.25.84.25Z"/>
          <path class="cls-5" d="m1451.11,626.29c.07,0,.13-.03.17-.09.06-.09.03-.22-.06-.27l-48.57-31.51c-.09-.06-.21-.03-.28.06-.06.09-.03.22.06.27l48.57,31.51s.07.03.11.03Z"/>
          <path class="cls-28" d="m1402.54,595.95c.45,0,.89-.22,1.15-.62.41-.63.23-1.48-.4-1.89l-10.15-6.59c-.63-.41-1.48-.23-1.89.4-.41.63-.23,1.48.4,1.89l10.15,6.59c.23.15.49.22.74.22Z"/>
          <path class="cls-23" d="m1327.97,663.02c.54,0,.99-.44.99-.99v-22.98c0-.54-.44-.99-.99-.99s-.99.44-.99.99v22.98c0,.54.44.99.99.99Z"/>
          <path class="cls-28" d="m1327.97,640.34c.71,0,1.28-.57,1.28-1.28v-15.38c0-.71-.57-1.28-1.28-1.28s-1.28.57-1.28,1.28v15.38c0,.71.57,1.28,1.28,1.28Z"/>
          <path class="cls-4" d="m1515.47,439.29c.17,0,.33-.08.42-.23.15-.23.08-.55-.15-.7l-10.41-6.72c-.23-.15-.55-.08-.7.15-.15.23-.08.55.15.7l10.41,6.72c.08.05.18.08.27.08Z"/>
          <path class="cls-5" d="m1567.34,472.73c.12,0,.23-.06.3-.16.11-.17.06-.38-.1-.49l-51.87-33.59c-.16-.1-.38-.06-.49.1-.11.17-.06.38.1.49l51.87,33.59c.06.04.13.06.19.06Z"/>
          <path class="cls-24" d="m1323.06,666.83c.21,0,.42-.07.59-.2l4.9-3.83c.42-.33.49-.93.17-1.35-.33-.42-.93-.49-1.35-.17l-4.9,3.83c-.42.33-.49.93-.17,1.35.19.24.47.37.76.37Z"/>
          <path class="cls-28" d="m1469.72,388.54c.44,0,.87-.22,1.13-.62.4-.62.22-1.46-.4-1.86l-21.38-14.2c-.63-.4-1.46-.22-1.86.4-.4.62-.22,1.46.4,1.86l21.38,14.2c.23.15.48.22.73.22Z"/>
          <path class="cls-7" d="m1448.63,335.75s.1-.02.14-.05l71.48-56.63c.1-.08.11-.22.04-.32-.08-.1-.22-.11-.32-.04l-71.48,56.63c-.1.08-.11.22-.04.32.04.06.11.09.18.09Z"/>
          <path class="cls-29" d="m1242.19,688.7c.51,0,1.01-.25,1.31-.71.47-.72.26-1.69-.46-2.16l-103.07-66.75c-.72-.47-1.69-.26-2.16.46-.47.72-.26,1.69.46,2.16l103.07,66.75c.26.17.56.25.85.25Z"/>
          <path class="cls-5" d="m1666.37,537.53c.32,0,.64-.16.83-.45.3-.46.17-1.07-.29-1.36l-99.03-64.16c-.45-.29-1.07-.17-1.36.29-.3.46-.17,1.07.29,1.36l99.03,64.16c.17.11.35.16.54.16Z"/>
          <path class="cls-10" d="m1454.47,399.47c.06,0,.12-.03.15-.09.06-.09.03-.2-.05-.26l-47.57-30.77c-.08-.06-.2-.03-.25.05-.06.09-.03.2.05.25l47.57,30.77s.07.03.1.03Z"/>
          <path class="cls-10" d="m1392.4,449.09c.14,0,.27-.04.39-.14l50.92-40.31c.27-.22.32-.61.1-.88-.21-.27-.61-.32-.88-.1l-50.92,40.31c-.27.22-.32.61-.1.88.12.16.31.24.49.24Z"/>
          <path class="cls-24" d="m1366.94,469.87c.27,0,.55-.09.78-.27l25.46-20.16c.54-.43.63-1.22.21-1.76-.43-.54-1.22-.64-1.76-.2l-25.46,20.16c-.54.43-.63,1.22-.21,1.76.25.31.61.48.99.48Z"/>
          <path class="cls-23" d="m1443.32,409.35c.26,0,.52-.09.74-.26l11.16-8.87c.52-.41.6-1.16.19-1.68-.41-.52-1.16-.6-1.68-.19l-11.16,8.87c-.52.41-.6,1.16-.19,1.68.24.3.58.45.94.45Z"/>
          <path class="cls-24" d="m1504.57,432.57c.27,0,.53-.13.68-.37.24-.38.14-.88-.24-1.13l-50.03-32.38c-.38-.25-.88-.14-1.13.24-.24.38-.14.88.24,1.12l50.03,32.38c.14.09.29.13.44.13Z"/>
          <path class="cls-2" d="m1495.32,404.11c.11,0,.21-.05.28-.15.1-.15.05-.36-.1-.45l-25.6-16.6c-.15-.1-.36-.06-.45.1-.1.15-.05.36.1.45l25.6,16.6c.05.04.12.05.18.05Z"/>
          <path class="cls-14" d="m1448.98,335.25c-.15-.19-.43-.23-.62-.07l-26.4,20.89s0,0-.01.01l-15.31,12.08c-.19.15-.22.43-.07.62.09.11.22.17.35.17.1,0,.19-.03.27-.09l15.31-12.09s0,0,0,0l26.4-20.89c.19-.15.22-.43.07-.62Z"/>
          <path class="cls-10" d="m1463.88,554.49s.06,0,.09-.03l41.38-32.78c.06-.05.07-.14.02-.2-.05-.06-.14-.07-.21-.02l-41.38,32.78c-.06.05-.07.14-.02.2.03.04.07.06.11.06Z"/>
          <path class="cls-10" d="m1505.26,522.1c.12,0,.24-.04.34-.12l62.08-49.18c.23-.19.27-.53.09-.76-.19-.24-.53-.27-.76-.09l-62.08,49.18c-.23.19-.27.53-.09.76.11.13.27.21.43.21Z"/>
          <path class="cls-11" d="m1139.12,630.38s.04,0,.05-.03c.02-.03,0-.06-.02-.08l-43.67-28.22s-.06,0-.08.02c-.02.03,0,.06.02.08l43.67,28.22s.02,0,.03,0Z"/>
          <path class="cls-23" d="m1048.89,639.09s.07-.02.09-.05c.03-.05.02-.11-.03-.14l-69.47-44.94s-.11-.02-.14.03c-.03.05-.02.11.03.14l69.47,44.94s.03.02.05.02Z"/>
          <path class="cls-24" d="m1824.71,640.62c.51,0,1.01-.25,1.31-.71.47-.72.26-1.69-.46-2.16l-73.16-47.37c-.72-.47-1.69-.26-2.16.46-.47.72-.26,1.69.46,2.16l73.16,47.37c.26.17.56.25.85.25Z"/>
          <path class="cls-23" d="m1402.54,580.88c.19,0,.38-.06.54-.19l61.34-48.64c.38-.3.44-.84.14-1.22-.3-.37-.85-.44-1.22-.14l-61.34,48.64c-.38.3-.44.84-.14,1.22.17.22.43.33.68.33Z"/>
          <path class="cls-23" d="m1392.39,588.58c.13,0,.25-.04.36-.12l10.15-7.99c.25-.2.29-.56.1-.81-.2-.25-.56-.29-.81-.09l-10.15,7.99c-.25.2-.29.56-.1.81.11.14.28.22.45.22Z"/>
          <path class="cls-5" d="m1309.49,431.62c.07,0,.14-.04.19-.1.07-.1.04-.24-.07-.31l-54.55-35.34c-.1-.07-.24-.04-.31.07-.07.1-.04.24.07.31l54.55,35.34s.08.04.12.04Z"/>
          <path class="cls-7" d="m1366.93,468.49c.05,0,.1-.03.13-.07.05-.07.03-.17-.05-.22l-57.44-36.93c-.08-.05-.17-.02-.22.05-.05.07-.03.17.05.22l57.44,36.93s.06.03.09.03Z"/>
          <path class="cls-6" d="m1254.94,396.11s.03,0,.04-.02c.01-.02,0-.05-.01-.07l-31.98-20.69s-.05,0-.07.01c-.01.02,0,.05.01.07l31.98,20.69s.02,0,.03,0Z"/>
          <path class="cls-5" d="m1323.06,643.21c.1,0,.21-.05.27-.15.1-.15.05-.34-.09-.44l-24.66-15.99c-.15-.1-.34-.05-.44.09-.09.15-.05.34.1.44l24.65,15.99c.05.03.11.05.17.05Z"/>
          <path class="cls-29" d="m1092.49,668.07c.26,0,.52-.13.67-.36.24-.37.13-.86-.24-1.1l-43.6-28.28c-.36-.24-.86-.13-1.1.24-.24.37-.13.86.24,1.1l43.6,28.28c.13.09.28.13.43.13Z"/>
          <path class="cls-24" d="m1298.41,628.42c.5,0,.99-.25,1.28-.7.46-.71.26-1.65-.45-2.11l-108.1-70c-.71-.46-1.65-.26-2.11.45-.46.71-.26,1.65.45,2.11l108.1,70c.26.17.54.25.83.25Z"/>
          <path class="cls-29" d="m1139.12,471.74c.28,0,.57-.09.81-.28l74.71-60.35c.56-.45.66-1.27.21-1.83-.44-.56-1.26-.66-1.83-.21l-74.71,60.35c-.56.45-.66,1.27-.21,1.83.26.32.64.49,1.02.49Z"/>
          <path class="cls-23" d="m1729.67,714.97c.13,0,.26-.04.36-.13l95.04-75.32c.25-.2.3-.57.1-.82-.2-.25-.57-.3-.83-.09l-95.04,75.32c-.25.2-.3.57-.1.82.12.15.29.22.46.22Z"/>
          <path class="cls-29" d="m1505.26,690.84c.81,0,1.46-.65,1.46-1.46v-44c0-.81-.65-1.46-1.46-1.46s-1.46.65-1.46,1.46v44c0,.81.65,1.46,1.46,1.46Z"/>
          <path class="cls-23" d="m747.08,349.02c-.33-.21-.76-.12-.97.21-.21.32-.12.76.21.97l232.72,152.6c.12.08.25.11.38.11.23,0,.45-.11.59-.32.21-.32.12-.76-.21-.97"/>
          <path class="cls-6" d="m1914.29,697.18s.07-.02.09-.05c.03-.05.02-.11-.03-.14l-89.57-58.02s-.11-.02-.14.03c-.03.05-.02.11.03.14l89.57,58.02s.04.02.06.02Z"/>
          <path class="cls-29" d="m1525.55,535.69c.32,0,.64-.16.83-.45.3-.46.17-1.07-.29-1.37l-133.15-86.23c-.46-.3-1.07-.17-1.37.29-.3.46-.17,1.07.29,1.37l133.15,86.23c.17.11.35.16.54.16Z"/>
          <path class="cls-11" d="m1392.39,299.4c.16,0,.28-.13.28-.28v-40.91c0-.16-.13-.28-.28-.28s-.28.13-.28.28v40.91c0,.16.13.28.28.28Z"/>
        </g>
        <g>
          <path class="cls-29" d="m1659.53,329.81c1.74-1.38,2.03-3.9.65-5.64-1.38-1.74-3.9-2.03-5.64-.65-1.74,1.38-2.03,3.9-.65,5.64,1.38,1.74,3.9,2.03,5.64.65Z"/>
          <path class="cls-23" d="m1393.86,282.45c.23,0,.45-.07.65-.23l141.81-112.32c.45-.36.53-1.01.17-1.46-.36-.45-1.01-.53-1.46-.17l-141.81,112.32c-.45.36-.53,1.01-.17,1.46.21.26.51.39.82.39Z"/>
          <path class="cls-24" d="m1537.91,172.44c1.74-1.38,2.03-3.9.65-5.64-1.38-1.74-3.9-2.03-5.64-.65-1.74,1.38-2.03,3.9-.65,5.64,1.38,1.74,3.9,2.03,5.64.65Z"/>
          <path class="cls-24" d="m1583.81,701.52c2.07,1.34,4.83.75,6.16-1.32,1.34-2.07.75-4.83-1.32-6.16-2.07-1.34-4.83-.75-6.16,1.32-1.34,2.07-.75,4.83,1.32,6.16Z"/>
          <path class="cls-23" d="m1404.93,731.65c0,2.43,1.97,4.4,4.4,4.4s4.4-1.97,4.4-4.4-1.97-4.4-4.4-4.4-4.4,1.97-4.4,4.4Z"/>
          <path class="cls-24" d="m1536.35,564.47c2.02-1.6,2.36-4.54.76-6.56-1.6-2.02-4.54-2.36-6.56-.76-2.02,1.6-2.36,4.54-.76,6.56,1.6,2.02,4.54,2.36,6.56.76Z"/>
          <path class="cls-29" d="m1252.62,680.26c1.94,1.25,4.53.7,5.78-1.24,1.25-1.94.7-4.53-1.24-5.78-1.94-1.25-4.53-.7-5.78,1.24-1.25,1.94-.7,4.53,1.24,5.78Z"/>
          <path class="cls-29" d="m1238.88,691.67c2.6,1.68,6.07.94,7.75-1.66,1.68-2.6.94-6.07-1.66-7.75-2.6-1.68-6.07-.94-7.75,1.66-1.68,2.6-.94,6.07,1.66,7.75Z"/>
          <path class="cls-23" d="m1733.48,718.68c-2.48,1.97-6.08,1.55-8.05-.93-1.97-2.48-1.55-6.08.93-8.05,2.48-1.97,6.08-1.55,8.05.93,1.97,2.48,1.55,6.08-.93,8.05Z"/>
          <path class="cls-23" d="m1513.17,689.06c0,4.37-3.54,7.91-7.91,7.91s-7.91-3.54-7.91-7.91,3.54-7.91,7.91-7.91,7.91,3.54,7.91,7.91Z"/>
          <path class="cls-27" d="m310.13,203.54c.32,0,.59-.26.59-.59V4.7c0-.32-.26-.59-.59-.59s-.59.26-.59.59v198.25c0,.32.26.59.59.59Z"/>
          <circle class="cls-27" cx="310.13" cy="5.01" r="5.01"/>
          <path class="cls-29" d="m1916.11,693.69c1.78,1.15,2.28,3.52,1.13,5.3-1.15,1.78-3.52,2.28-5.3,1.13-1.78-1.15-2.28-3.52-1.13-5.3,1.15-1.78,3.52-2.28,5.3-1.13Z"/>
          <path class="cls-27" d="m1528.39,529.73c2.65,1.72,3.41,5.25,1.69,7.9-1.72,2.65-5.25,3.41-7.9,1.69-2.65-1.72-3.41-5.25-1.69-7.9,1.72-2.65,5.25-3.41,7.9-1.69Z"/>
          <path class="cls-23" d="m1212.8,403.38c2.4-1.9,5.89-1.49,7.78.91,1.9,2.4,1.49,5.89-.91,7.78-2.4,1.9-5.89,1.49-7.78-.91-1.9-2.4-1.49-5.89.91-7.78Z"/>
        </g>
      </g>
    </g>
  </g>
</svg>